<?xml version="1.0" encoding="UTF-8"?><svg id="Layer_1" xmlns="http://www.w3.org/2000/svg" xmlns:xlink="http://www.w3.org/1999/xlink" viewBox="0 0 1024 1024"><defs><style>.cls-1,.cls-2{fill:none;}.cls-3{clip-path:url(#clippath);}.cls-4{fill:#fff;}.cls-5{fill:#cc3;}.cls-6{fill:#4242db;}.cls-2{stroke:#4242db;stroke-linejoin:round;stroke-width:72px;}</style><clipPath id="clippath"><circle class="cls-1" cx="512.0008" cy="512.0008" r="500.338" transform="translate(-212.0777 512.0008) rotate(-45)"/></clipPath></defs><g id="Layer-1"><path id="Fill_2" class="cls-2" d="M47.6806,511.9985C47.6806,255.5631,255.5631,47.6806,511.9985,47.6806s464.3209,207.8826,464.3209,464.318-207.8856,464.3209-464.3209,464.3209S47.6806,768.4339,47.6806,511.9985Z"/><g class="cls-3"><g><path class="cls-6" d="M958.835,1498.25c-38.726-4.45-46.411-7.37-60.416-14.66-13.367-6.83-26.228-14.61-38.482-23.2899-5.243-3.91-11.357-6.49-17.818-7.53-4.406-.42-8.827,.61-12.598,2.9299-8.187,4.76-14,12.74-16.023,22-9.387,40.15-12.155,72.5601-64.754,72.49H431.135c-173.227,.0701-138.62-76.34-18.003-130.3099,4.216-1.73,1.429-5.83-.954-7.63-88.074-104.5-137.279-179.27-139.224-339.98-.013-29.0601,2.637-58.06,7.92-86.642v-.036c11.014-60.053,33.632-117.382,66.587-168.779l.037-.073c18.606-29.063,40.292-56.034,64.68-80.447,56.577-54.194,56.467-151.912,0-206.326q-.33,0-.33-.33c-62.37-44.587-106.407-49.757-135.998-45.137-4.803,.734-54.047,8.727-68.457-5.903l-.124-.126c-8.643-8.847-7.749-21.947-7.503-24.635,.04-1.499,.272-2.986,.69-4.426,26.231-80.707,96.702-128.075,179.492-136.87,5.123-.402,10.064-2.078,14.374-4.877,40.32-27.957,74.387-44.291,88.344-48.831,47.223-15.357,102.348-10.682,158.053,8.613,27.016,8.638,51.901,22.888,73.025,41.814,20.07,18.067,36.057,40.205,46.895,64.938,15.261,36.207,14.618,69.035,14.221,89.323-.193,9.739-.909,19.46-2.144,29.121-3.303,25.77-9.646,44.721-14.691,67.988-16.718,77.093-19.212,137.402,44.177,332.11,11.597,35.619,42.401,100.401,71.937,187.531,24.561,72.45,30.56,179.5699,29.076,263.33-.588,33.22,8.965,59.9601,22.17,87.79,3.212,6.77,14.391,22.75,32.945,24.53,34.528,3.3199,33.845,46.1599,.505,42.33Z"/><path class="cls-5" d="M352.346,356.979c-62.667,1.547-99.669,70.016-101.889,79.203-.647,2.722-.574,5.566,.213,8.252,.94,2.916,2.975,5.353,5.675,6.8,2.333,1.138,5.005,1.368,7.498,.646,4.298-.829,6.994-1.587,11.616-2.278,15.873-2.371,61.061,3.149,98.821,13.268,2.601,.704,5.375,.339,7.706-1.014,2.33-1.353,4.022-3.581,4.7-6.189,7.991-30.991,9.437-86.39-21.411-97.183-4.174-1.322-8.563-1.833-12.929-1.505Z"/><path class="cls-4" d="M506.834,386.029c-30.188-.353-30.124-46.728,0-46.887,30.541,.095,30.573,46.598,0,46.887Z"/><path class="cls-4" d="M434.272,799.446c-6.83,8.448-13.909,18.352-13.909,18.353-5.111,7.15-9.102,13.219-11.77,17.39l-.032,.063c-28.231,44.03-47.607,93.142-57.042,144.587v.031c-4.526,24.48-6.797,49.33-6.785,74.23-.228,48.91,7.934,97.49,24.131,143.64,15.184,40.8101,37.197,78.74,65.096,112.16,21.206,25.5699,49.411,44.4,81.159,54.1799,.216,.0601,.432,.13,.649,.2001,9.041,2.74,119.08,30.2899,170.877-9.64,45.984-35.4401-39.154-246.51-65.727-299.37-20.651-41.07-42.647-81.864-51.944-106.937-21.451-57.849-20.257-110.675-37.866-177.709-1.968-7.493-6.912-18.248-16.753-22.094-26.877-10.504-72.255,41.233-80.084,50.916Z"/></g></g></g></svg>